<svg width="75" height="75" viewBox="0 0 75 75" fill="none" xmlns="http://www.w3.org/2000/svg">
<path d="M75 37.5C75 47.4456 71.0491 56.9839 64.0165 64.0165C56.9839 71.0491 47.4456 75 37.5 75C27.5544 75 18.0161 71.0491 10.9835 64.0165C3.95088 56.9839 0 47.4456 0 37.5C0 27.5544 3.95088 18.0161 10.9835 10.9835C18.0161 3.95088 27.5544 0 37.5 0C47.4456 0 56.9839 3.95088 64.0165 10.9835C71.0491 18.0161 75 27.5544 75 37.5V37.5ZM25.0969 21.7781C24.6568 21.338 24.0599 21.0908 23.4375 21.0908C22.8151 21.0908 22.2182 21.338 21.7781 21.7781C21.338 22.2182 21.0908 22.8151 21.0908 23.4375C21.0908 24.0599 21.338 24.6568 21.7781 25.0969L34.1859 37.5L21.7781 49.9031C21.5602 50.121 21.3874 50.3797 21.2694 50.6645C21.1515 50.9492 21.0908 51.2543 21.0908 51.5625C21.0908 51.8707 21.1515 52.1758 21.2694 52.4605C21.3874 52.7453 21.5602 53.004 21.7781 53.2219C22.2182 53.662 22.8151 53.9092 23.4375 53.9092C23.7457 53.9092 24.0508 53.8485 24.3355 53.7306C24.6203 53.6126 24.879 53.4398 25.0969 53.2219L37.5 40.8141L49.9031 53.2219C50.121 53.4398 50.3797 53.6126 50.6645 53.7306C50.9492 53.8485 51.2543 53.9092 51.5625 53.9092C51.8707 53.9092 52.1758 53.8485 52.4605 53.7306C52.7453 53.6126 53.004 53.4398 53.2219 53.2219C53.4398 53.004 53.6126 52.7453 53.7306 52.4605C53.8485 52.1758 53.9092 51.8707 53.9092 51.5625C53.9092 51.2543 53.8485 50.9492 53.7306 50.6645C53.6126 50.3797 53.4398 50.121 53.2219 49.9031L40.8141 37.5L53.2219 25.0969C53.4398 24.879 53.6126 24.6203 53.7306 24.3355C53.8485 24.0508 53.9092 23.7457 53.9092 23.4375C53.9092 23.1293 53.8485 22.8242 53.7306 22.5395C53.6126 22.2547 53.4398 21.996 53.2219 21.7781C53.004 21.5602 52.7453 21.3874 52.4605 21.2694C52.1758 21.1515 51.8707 21.0908 51.5625 21.0908C51.2543 21.0908 50.9492 21.1515 50.6645 21.2694C50.3797 21.3874 50.121 21.5602 49.9031 21.7781L37.5 34.1859L25.0969 21.7781Z" fill="#EE6F6D"/>
</svg>
