<?xml version="1.0" encoding="utf-8"?>
<!-- Generator: Adobe Illustrator 26.2.1, SVG Export Plug-In . SVG Version: 6.00 Build 0)  -->
<svg version="1.1" id="Calque_1" xmlns="http://www.w3.org/2000/svg" xmlns:xlink="http://www.w3.org/1999/xlink" x="0px" y="0px"
	 viewBox="0 0 434.1 87.2" style="enable-background:new 0 0 434.1 87.2;" xml:space="preserve">
<style type="text/css">
	.st0{opacity:0.75;}
	.st1{fill:#FFFFFF;}
</style>
<g class="st0">
	<g id="a">
	</g>
	<g id="b">
		<g id="c">
			<g>
				<path class="st1" d="M427.1,13.6c-1.6-2.2-4.4-3.1-6.9-2.2l-12.4,4.4L381.5,0.4c-2.3-1.3-4.8,1.3-3.5,3.6L389,22.4l-10,3.5
					l-12-9c-1.9-1.4-4.4,0.5-3.7,2.7l6.8,19.8c0.4,1.3,1.8,1.9,3,1.5l20.6-7.2l18.9-6.7l11.5-4.1C428,21.6,429.5,16.9,427.1,13.6
					L427.1,13.6z"/>
				<g>
					<path class="st1" d="M350.7,45.3c-0.4,0-0.7-0.2-0.9-0.5c-0.3-0.5-0.1-1.1,0.4-1.3c0.4-0.2,0.9-0.5,1.3-0.7
						c0.5-0.3,1.1-0.1,1.3,0.4s0.1,1.1-0.4,1.4c-0.4,0.2-0.9,0.5-1.3,0.7C351.1,45.3,350.9,45.3,350.7,45.3L350.7,45.3z"/>
					<path class="st1" d="M90.1,87.2L90.1,87.2C89,87.1,88,87,87,86.8c-0.5-0.1-0.9-0.7-0.7-1.2s0.6-0.9,1.2-0.8
						c0.9,0.2,1.8,0.3,2.8,0.4c0.5,0,1,0.5,0.9,1C91.1,86.8,90.6,87.2,90.1,87.2L90.1,87.2z M97.8,85.9c-0.4,0-0.8-0.2-0.9-0.6
						c-0.2-0.5,0.1-1.1,0.6-1.3c0.9-0.3,1.7-0.8,2.6-1.2c0.5-0.3,1.1-0.1,1.3,0.4c0.3,0.5,0.1,1.1-0.4,1.4c-0.9,0.5-1.8,0.9-2.8,1.3
						C98.1,85.8,98,85.9,97.8,85.9L97.8,85.9z M80.1,83.5c-0.2,0-0.4-0.1-0.6-0.2c-0.8-0.6-1.6-1.3-2.3-2c-0.4-0.4-0.4-1,0-1.4
						c0.4-0.4,1-0.4,1.4,0c0.7,0.7,1.4,1.3,2.1,1.9c0.4,0.3,0.5,0.9,0.2,1.4C80.7,83.3,80.4,83.5,80.1,83.5L80.1,83.5z M106.7,79.6
						c-0.2,0-0.5-0.1-0.7-0.3c-0.4-0.4-0.4-1-0.1-1.4c0.6-0.7,1.2-1.5,1.8-2.2c0.3-0.4,0.9-0.6,1.4-0.2c0.4,0.3,0.6,0.9,0.2,1.4
						c-0.6,0.8-1.2,1.7-1.9,2.4C107.2,79.5,106.9,79.6,106.7,79.6L106.7,79.6z M73.3,75.1c-0.4,0-0.7-0.2-0.9-0.6
						c-0.5-0.9-0.9-1.9-1.2-2.8c-0.2-0.5,0.1-1.1,0.6-1.3c0.5-0.2,1.1,0.1,1.3,0.6c0.3,0.9,0.7,1.8,1.1,2.6c0.2,0.5,0,1.1-0.4,1.3
						C73.6,75,73.4,75.1,73.3,75.1L73.3,75.1z M111.8,70.1c-0.1,0-0.2,0-0.2,0c-0.5-0.1-0.8-0.7-0.7-1.2c0.1-0.6,0.3-1.2,0.4-1.8
						c0.1-0.3,0.1-0.7,0.1-1.1c0.1-0.6,0.5-0.9,1.1-0.9c0.5,0.1,0.9,0.6,0.9,1.1c0,0.4-0.1,0.8-0.2,1.1c-0.1,0.7-0.2,1.3-0.4,1.9
						C112.6,69.8,112.2,70.1,111.8,70.1L111.8,70.1z M9.9,66.4c-0.5,0-1-0.4-1-1c0-0.6,0.4-1,1-1c0.9,0,1.9-0.1,2.8-0.3
						c0.5-0.1,1,0.3,1.1,0.8c0.1,0.5-0.3,1.1-0.8,1.2C12,66.3,11,66.4,9.9,66.4C10,66.4,9.9,66.4,9.9,66.4z M70.5,64.5
						c-0.5,0-1-0.4-1-1c0-0.2,0-0.4,0-0.6c0-0.2,0-0.5,0-0.7c0-0.6,0-1.2,0-1.7c0-0.5,0.5-1,1-0.9c0.5,0,1,0.5,0.9,1
						c0,0.5,0,1.1,0,1.6c0,0.2,0,0.5,0,0.7c0,0.2,0,0.4,0,0.6C71.5,64,71,64.5,70.5,64.5C70.5,64.5,70.5,64.5,70.5,64.5L70.5,64.5z
						 M20.3,63.5c-0.4,0-0.7-0.2-0.9-0.5c-0.3-0.5-0.1-1.1,0.4-1.3c0.8-0.4,1.6-0.9,2.5-1.5c0.5-0.3,1.1-0.2,1.4,0.3
						s0.2,1.1-0.3,1.4c-0.9,0.6-1.8,1.1-2.6,1.5C20.6,63.5,20.4,63.5,20.3,63.5L20.3,63.5z M111.9,59.2c-0.5,0-0.9-0.3-1-0.8
						c-0.2-0.9-0.4-1.9-0.7-2.8c-0.2-0.5,0.1-1.1,0.6-1.3c0.5-0.2,1.1,0.1,1.2,0.6c0.3,1,0.6,2,0.8,3c0.1,0.5-0.2,1.1-0.8,1.2
						C112.1,59.2,112,59.2,111.9,59.2z M29.2,57.2c-0.3,0-0.6-0.1-0.8-0.4c-0.3-0.4-0.3-1.1,0.1-1.4c0.7-0.5,1.3-1.1,2-1.7l0.3-0.2
						c0.4-0.3,1-0.3,1.4,0.1c0.3,0.4,0.3,1.1-0.1,1.4l-0.3,0.2c-0.7,0.5-1.3,1.1-2,1.7C29.6,57.2,29.4,57.2,29.2,57.2L29.2,57.2z
						 M308.9,55.3c-0.5,0-1-0.4-1-1c0-0.5,0.4-1,1-1c1,0,2,0,2.9-0.1c0.6,0,1,0.4,1,1c0,0.5-0.4,1-0.9,1
						C310.9,55.2,310,55.2,308.9,55.3L308.9,55.3L308.9,55.3z M301.1,55C301.1,55,301,55,301.1,55c-1-0.1-2-0.1-3-0.2
						c-0.5,0-0.9-0.5-0.9-1.1c0-0.5,0.5-1,1.1-0.9c1,0.1,2,0.2,2.9,0.2c0.5,0,1,0.5,0.9,1.1C302,54.6,301.6,55,301.1,55L301.1,55z
						 M319.8,54.6c-0.5,0-0.9-0.4-1-0.9c-0.1-0.5,0.3-1,0.9-1.1c1-0.1,1.9-0.2,2.9-0.4c0.6-0.1,1,0.3,1.1,0.8c0.1,0.5-0.3,1-0.8,1.1
						c-1,0.1-2,0.3-3,0.4C319.8,54.6,319.8,54.6,319.8,54.6L319.8,54.6z M290.3,54c0,0-0.1,0-0.1,0c-1-0.1-2-0.3-2.9-0.5
						c-0.5-0.1-0.9-0.6-0.8-1.2c0.1-0.5,0.6-0.9,1.1-0.8c1,0.2,1.9,0.3,2.9,0.5c0.5,0.1,0.9,0.6,0.8,1.1
						C291.2,53.6,290.8,54,290.3,54L290.3,54z M71.9,53.7c-0.1,0-0.2,0-0.3,0c-0.5-0.2-0.8-0.7-0.7-1.2c0.3-1,0.6-1.9,1-2.9
						c0.2-0.5,0.8-0.8,1.3-0.6c0.5,0.2,0.7,0.8,0.6,1.3c-0.4,0.9-0.7,1.8-1,2.8C72.7,53.4,72.3,53.7,71.9,53.7L71.9,53.7z
						 M330.5,52.8c-0.5,0-0.9-0.3-1-0.8c-0.1-0.5,0.2-1.1,0.7-1.2c0.9-0.2,1.9-0.5,2.8-0.7c0.5-0.1,1.1,0.2,1.2,0.7
						c0.1,0.5-0.2,1.1-0.7,1.2c-1,0.2-1.9,0.5-2.9,0.7C330.6,52.8,330.5,52.8,330.5,52.8L330.5,52.8z M279.6,52c-0.1,0-0.1,0-0.2,0
						c-1-0.2-1.9-0.4-2.9-0.7c-0.5-0.1-0.9-0.7-0.7-1.2c0.1-0.5,0.7-0.9,1.2-0.8c1,0.2,1.9,0.4,2.9,0.7c0.5,0.1,0.9,0.7,0.8,1.2
						C280.5,51.7,280.1,52,279.6,52z M37.6,50.4c-0.3,0-0.6-0.1-0.8-0.4c-0.3-0.4-0.2-1.1,0.2-1.4c0.8-0.6,1.6-1.2,2.4-1.8
						c0.4-0.3,1.1-0.2,1.4,0.2c0.3,0.5,0.2,1.1-0.2,1.4c-0.8,0.6-1.6,1.2-2.4,1.8C38.1,50.3,37.9,50.4,37.6,50.4L37.6,50.4z
						 M340.8,49.8c-0.4,0-0.8-0.2-0.9-0.7c-0.2-0.5,0.1-1.1,0.6-1.3c0.9-0.3,1.8-0.7,2.7-1.1c0.5-0.2,1.1,0,1.3,0.5
						c0.2,0.5,0,1.1-0.5,1.3c-0.9,0.4-1.9,0.7-2.8,1.1C341.1,49.8,341,49.8,340.8,49.8L340.8,49.8z M269.1,49.4c-0.1,0-0.2,0-0.3,0
						c-1-0.3-1.9-0.5-2.9-0.8c-0.5-0.2-0.8-0.7-0.7-1.2c0.2-0.5,0.7-0.8,1.2-0.7c0.9,0.3,1.9,0.5,2.8,0.8c0.5,0.2,0.8,0.7,0.7,1.2
						C270,49.1,269.6,49.4,269.1,49.4L269.1,49.4z M107.7,49.2c-0.3,0-0.6-0.2-0.8-0.5c-0.5-0.8-1.1-1.6-1.7-2.3
						c-0.3-0.4-0.3-1.1,0.1-1.4s1-0.3,1.4,0.2c0.6,0.8,1.2,1.6,1.8,2.5c0.3,0.5,0.2,1.1-0.3,1.4C108.1,49.1,107.9,49.2,107.7,49.2
						L107.7,49.2z M258.8,46.2c-0.1,0-0.2,0-0.3,0c-0.9-0.3-1.9-0.6-2.8-1c-0.5-0.2-0.8-0.8-0.6-1.3c0.2-0.5,0.7-0.8,1.3-0.6
						c0.9,0.3,1.9,0.6,2.8,0.9c0.5,0.2,0.8,0.7,0.6,1.3C259.6,45.9,259.2,46.2,258.8,46.2L258.8,46.2z M46.6,44.2
						c-0.3,0-0.7-0.2-0.8-0.5c-0.3-0.5-0.1-1.1,0.3-1.4c0.8-0.5,1.7-1,2.6-1.5c0.5-0.3,1.1-0.1,1.3,0.4s0.1,1.1-0.4,1.4
						c-0.8,0.5-1.7,1-2.5,1.5C46.9,44.1,46.8,44.2,46.6,44.2z M76.5,43.8c-0.2,0-0.4,0-0.5-0.2c-0.5-0.3-0.6-0.9-0.3-1.4
						c0.5-0.8,1.1-1.7,1.7-2.5c0.3-0.5,0.9-0.5,1.4-0.2c0.4,0.3,0.5,1,0.2,1.4c-0.6,0.8-1.1,1.6-1.6,2.4
						C77.1,43.6,76.8,43.8,76.5,43.8z M248.5,42.6c-0.1,0-0.2,0-0.3-0.1c-0.9-0.3-1.9-0.7-2.8-1c-0.5-0.2-0.8-0.8-0.6-1.3
						s0.8-0.8,1.3-0.6c0.9,0.3,1.8,0.7,2.8,1c0.5,0.2,0.8,0.8,0.6,1.3C249.3,42.3,248.9,42.6,248.5,42.6L248.5,42.6z M100.3,41.2
						c-0.2,0-0.4-0.1-0.6-0.2c-0.8-0.6-1.6-1.1-2.4-1.6c-0.5-0.3-0.6-0.9-0.3-1.4c0.3-0.5,0.9-0.6,1.4-0.3c0.9,0.5,1.7,1.1,2.5,1.7
						c0.4,0.3,0.5,1,0.2,1.4C100.9,41.1,100.6,41.2,100.3,41.2z M56.2,39.1c-0.4,0-0.7-0.2-0.9-0.6c-0.2-0.5,0-1.1,0.5-1.3
						c0.9-0.4,1.9-0.8,2.8-1.2c0.5-0.2,1.1,0.1,1.3,0.6c0.2,0.5-0.1,1.1-0.6,1.3c-0.9,0.3-1.8,0.7-2.7,1.1
						C56.4,39,56.3,39,56.2,39.1L56.2,39.1z M238.4,38.7c-0.1,0-0.2,0-0.4-0.1l-2.8-1.1c-0.5-0.2-0.8-0.8-0.6-1.3s0.8-0.8,1.3-0.6
						l2.8,1.1c0.5,0.2,0.8,0.8,0.6,1.3C239.2,38.4,238.8,38.7,238.4,38.7L238.4,38.7z M90.7,36.2c-0.1,0-0.2,0-0.3,0
						c-0.9-0.3-1.8-0.6-2.8-0.8c-0.5-0.1-0.9-0.7-0.7-1.2c0.1-0.5,0.7-0.9,1.2-0.7c1,0.2,2,0.5,2.9,0.8c0.5,0.2,0.8,0.7,0.6,1.3
						C91.5,35.9,91.1,36.2,90.7,36.2z M66.4,35.5c-0.4,0-0.9-0.3-1-0.8c-0.1-0.5,0.2-1.1,0.7-1.2c1-0.2,2-0.4,2.9-0.6
						c0.5-0.1,1,0.3,1.1,0.8c0.1,0.5-0.3,1.1-0.8,1.2c-0.9,0.2-1.9,0.4-2.8,0.6C66.6,35.5,66.5,35.6,66.4,35.5L66.4,35.5z
						 M83.2,35.2c-0.2,0-0.5-0.1-0.7-0.3c-0.4-0.4-0.4-1,0-1.4c0.7-0.7,1.4-1.5,2.1-2.1c0.4-0.4,1-0.4,1.4,0c0.4,0.4,0.4,1,0,1.4
						c-0.7,0.7-1.4,1.4-2.1,2.1C83.7,35,83.4,35.1,83.2,35.2L83.2,35.2z M228.3,34.6c-0.1,0-0.2,0-0.4-0.1l-2.7-1.1
						c-0.5-0.2-0.7-0.8-0.6-1.3c0.2-0.5,0.8-0.8,1.3-0.6l2.7,1.1c0.5,0.2,0.7,0.8,0.6,1.3C229.1,34.4,228.7,34.6,228.3,34.6
						L228.3,34.6z M80.1,34.2C80.1,34.2,80.1,34.2,80.1,34.2c-1,0-2-0.1-2.9,0h0c-0.5,0-1-0.4-1-1c0-0.5,0.4-1,1-1c1,0,2,0,3,0
						c0.5,0,1,0.5,0.9,1C81.1,33.8,80.6,34.2,80.1,34.2L80.1,34.2z M218.3,30.6c-0.1,0-0.2,0-0.4-0.1l-2.7-1.1
						c-0.5-0.2-0.8-0.8-0.6-1.3c0.2-0.5,0.8-0.8,1.3-0.6l2.8,1.1c0.5,0.2,0.7,0.8,0.6,1.3C219,30.3,218.7,30.6,218.3,30.6
						L218.3,30.6z M91.3,27.9c-0.3,0-0.6-0.1-0.8-0.4c-0.3-0.4-0.2-1.1,0.2-1.4c0.8-0.6,1.6-1.2,2.4-1.8c0.5-0.3,1.1-0.2,1.4,0.3
						c0.3,0.5,0.2,1.1-0.3,1.4c-0.8,0.5-1.6,1.1-2.4,1.7C91.7,27.8,91.5,27.9,91.3,27.9z M208.2,26.6c-0.1,0-0.2,0-0.3-0.1
						c-0.9-0.4-1.8-0.7-2.8-1c-0.5-0.2-0.8-0.8-0.6-1.3c0.2-0.5,0.8-0.8,1.3-0.6c0.9,0.4,1.9,0.7,2.8,1c0.5,0.2,0.8,0.8,0.6,1.3
						C208.9,26.3,208.6,26.6,208.2,26.6L208.2,26.6z M198,22.8c-0.1,0-0.2,0-0.3-0.1c-0.9-0.3-1.9-0.6-2.8-1
						c-0.5-0.2-0.8-0.7-0.6-1.3c0.2-0.5,0.7-0.8,1.3-0.6c0.9,0.3,1.9,0.6,2.8,1c0.5,0.2,0.8,0.8,0.6,1.3
						C198.8,22.5,198.4,22.8,198,22.8L198,22.8z M100.4,22c-0.4,0-0.7-0.2-0.9-0.5c-0.3-0.5-0.1-1.1,0.4-1.4
						c0.9-0.5,1.8-0.9,2.7-1.4c0.5-0.2,1.1,0,1.3,0.5c0.2,0.5,0,1.1-0.5,1.3c-0.9,0.4-1.7,0.9-2.6,1.3C100.7,22,100.6,22,100.4,22
						L100.4,22z M187.7,19.4c-0.1,0-0.2,0-0.3,0c-0.9-0.3-1.9-0.6-2.8-0.9c-0.5-0.1-0.8-0.7-0.7-1.2c0.2-0.5,0.7-0.8,1.2-0.7
						c0.9,0.3,1.9,0.6,2.8,0.9c0.5,0.2,0.8,0.7,0.7,1.2C188.5,19.1,188.1,19.4,187.7,19.4L187.7,19.4z M110.3,17.6
						c-0.4,0-0.8-0.2-0.9-0.7c-0.2-0.5,0.1-1.1,0.6-1.3c0.9-0.4,1.9-0.7,2.8-1c0.5-0.2,1.1,0.1,1.2,0.6c0.2,0.5-0.1,1.1-0.6,1.3
						c-0.9,0.3-1.8,0.6-2.8,1C110.5,17.5,110.4,17.6,110.3,17.6L110.3,17.6z M177.2,16.5c-0.1,0-0.2,0-0.2,0
						c-0.9-0.2-1.9-0.5-2.9-0.7c-0.5-0.1-0.9-0.7-0.7-1.2c0.1-0.5,0.7-0.9,1.2-0.8c1,0.2,1.9,0.5,2.9,0.7c0.5,0.1,0.8,0.7,0.7,1.2
						C178.1,16.1,177.7,16.5,177.2,16.5L177.2,16.5z M120.7,14.4c-0.4,0-0.9-0.3-1-0.8c-0.1-0.5,0.2-1.1,0.7-1.2
						c1-0.2,1.9-0.4,2.9-0.6c0.5-0.1,1.1,0.2,1.2,0.8c0.1,0.5-0.2,1.1-0.8,1.2c-1,0.2-1.9,0.4-2.9,0.6
						C120.8,14.4,120.8,14.4,120.7,14.4L120.7,14.4z M166.7,14.1c-0.1,0-0.1,0-0.2,0c-1-0.2-1.9-0.4-2.9-0.5
						c-0.5-0.1-0.9-0.6-0.8-1.1c0.1-0.6,0.6-0.9,1.1-0.8c1,0.2,2,0.3,2.9,0.5c0.5,0.1,0.9,0.6,0.8,1.2
						C167.5,13.8,167.1,14.1,166.7,14.1L166.7,14.1z M131.4,12.5c-0.5,0-0.9-0.4-1-0.9c-0.1-0.6,0.3-1.1,0.9-1.1c1-0.1,2-0.2,3-0.3
						c0.6,0,1,0.4,1.1,0.9c0,0.6-0.4,1-0.9,1.1c-1,0.1-1.9,0.2-2.9,0.3C131.4,12.5,131.4,12.5,131.4,12.5L131.4,12.5z M155.9,12.5
						c0,0-0.1,0-0.1,0c-1-0.1-1.9-0.2-2.9-0.3c-0.5-0.1-0.9-0.5-0.9-1.1c0-0.6,0.5-1,1.1-0.9c1,0.1,2,0.2,3,0.3
						c0.5,0.1,0.9,0.6,0.9,1.1C156.9,12.2,156.4,12.5,155.9,12.5L155.9,12.5z M145.1,11.8L145.1,11.8c-1,0-2,0-2.9,0
						c-0.6,0-1-0.4-1-1s0.4-1,1-1c1,0,2,0,3,0c0.5,0,1,0.5,1,1C146.1,11.4,145.7,11.8,145.1,11.8L145.1,11.8z"/>
					<path class="st1" d="M2.2,64.6c-0.2,0-0.3,0-0.5-0.1c-0.5-0.3-0.9-0.5-1.4-0.8c-0.4-0.3-0.6-0.9-0.2-1.4s0.9-0.6,1.4-0.2
						c0.4,0.3,0.8,0.5,1.2,0.7c0.5,0.3,0.7,0.9,0.4,1.4C2.9,64.4,2.6,64.6,2.2,64.6L2.2,64.6z"/>
				</g>
			</g>
		</g>
	</g>
</g>
</svg>
