<svg width="75" height="75" viewBox="0 0 75 75" fill="none" xmlns="http://www.w3.org/2000/svg">
<path d="M75 37.5C75 47.4456 71.0491 56.9839 64.0165 64.0165C56.9839 71.0491 47.4456 75 37.5 75C27.5544 75 18.0161 71.0491 10.9835 64.0165C3.95088 56.9839 0 47.4456 0 37.5C0 27.5544 3.95088 18.0161 10.9835 10.9835C18.0161 3.95088 27.5544 0 37.5 0C47.4456 0 56.9839 3.95088 64.0165 10.9835C71.0491 18.0161 75 27.5544 75 37.5ZM56.3906 23.2969C56.0558 22.9632 55.6571 22.7005 55.2184 22.5244C54.7797 22.3484 54.3101 22.2626 53.8375 22.2722C53.3649 22.2819 52.8991 22.3867 52.4679 22.5805C52.0367 22.7742 51.6491 23.053 51.3281 23.4L35.0484 44.1422L25.2375 34.3266C24.5711 33.7056 23.6896 33.3675 22.7788 33.3836C21.868 33.3996 20.999 33.7686 20.3549 34.4127C19.7108 35.0568 19.3418 35.9258 19.3257 36.8366C19.3097 37.7474 19.6477 38.6289 20.2687 39.2953L32.6719 51.7031C33.006 52.0367 33.4039 52.2995 33.8418 52.4759C34.2797 52.6523 34.7487 52.7387 35.2207 52.73C35.6927 52.7212 36.1581 52.6175 36.5892 52.425C37.0203 52.2324 37.4081 51.9551 37.7297 51.6094L56.4422 28.2188C57.0801 27.5555 57.4325 26.6685 57.4238 25.7482C57.415 24.828 57.0458 23.9479 56.3953 23.2969H56.3906Z" fill="#7CBC77"/>
</svg>
